PathFileType	4	(X/Y/Z)	T1_P2_NoVision_Movement_3_0-732.trc
DataRate	CameraRate	NumFrames	NumMarkers	Units	OrigDataRate	OrigDataStartFrame	OrigNumFrames
60	60	7	27	m	60	91	732
Frame#	Time	RHip			RKnee			RAnkle			RBigToe			RSmallToe			RHeel			LHip			LKnee			LAnkle			LBigToe			LSmallToe			LHeel			Neck			Head			Nose			RShoulder			RElbow			RWrist			RThumb			RIndex			RPinky			LShoulder			LElbow			LWrist			LThumb			LIndex			LPinky		
		X1	Y1	Z1	X2	Y2	Z2	X3	Y3	Z3	X4	Y4	Z4	X5	Y5	Z5	X6	Y6	Z6	X7	Y7	Z7	X8	Y8	Z8	X9	Y9	Z9	X10	Y10	Z10	X11	Y11	Z11	X12	Y12	Z12	X13	Y13	Z13	X14	Y14	Z14	X15	Y15	Z15	X16	Y16	Z16	X17	Y17	Z17	X18	Y18	Z18	X19	Y19	Z19	X20	Y20	Z20	X21	Y21	Z21	X22	Y22	Z22	X23	Y23	Z23	X24	Y24	Z24	X25	Y25	Z25	X26	Y26	Z26	X27	Y27	Z27
92	1.5333333333333334	470.2385888230514	3611.9571585917533	529.7661309148714	880.4907854138025	3686.392140144761	560.0980214735093	1241.8652316079886	3702.283234642415	623.9001169334011	1332.7578396560825	3629.4902283848614	607.105726051707	1311.8711955699382	3652.2962909951643	559.8647577119111	1270.6238184442084	3703.3872424108713	641.8870320037454	468.43395706525456	3507.8410803647803	733.9723238816935	876.022541742333	3530.1991272929413	733.2949137276304	1228.1437324842632	3585.574370212182	723.0484635610997	1327.942294025048	3554.3257266203364	682.3177267155485	1288.1021803451686	3474.594915664761	715.228763340068	1270.620443490799	3611.1193111290645	716.4782888814872	-117.62952937053453	3538.7221208031474	636.3300664570426	-369.01305463591916	3500.3013443199407	621.257504654251	-234.26408426834976	3411.540012359303	548.958809598136	-30.846386560389792	3692.856874844137	535.7588718047735	206.04440241154444	3743.2995351111117	475.57595465433195	443.52999664880326	3661.153205932088	404.19811479769425	582.6402115867182	3604.839146827685	414.40603671098006	614.1368108013168	3650.7979889739786	414.9651845677875	591.8588259081265	3691.2990365123624	407.73169451999985	-14.188249578795979	3534.2844751079756	817.2073225810391	246.25846514430143	3453.845547280901	840.6467202897825	485.5751656604791	3430.1870823451322	829.1636139817807	594.0976430165423	3417.3278868485013	797.608036638187	600.9743387825794	3405.0885931149246	809.1984118008453	604.053998544101	3401.818787844998	841.3807622155565
93	1.55	465.9960549742405	3615.2883804807775	532.3834400694412	876.7914957688305	3692.0154683296937	562.9918546140921	1248.6796176951761	3722.573785890039	628.9839927730026	1327.1639077463788	3627.778628062812	605.4445003084718	1304.3827618158648	3631.8662235005363	554.3875769599358	1270.4950313597942	3703.5004844318137	641.9382695842543	468.69895605057604	3508.325738167676	734.168677481041	872.634615508858	3535.29343838692	735.7770922957103	1234.3825607852298	3589.340130287485	723.7815251301221	1327.9031586661458	3554.18804301819	682.1927844303056	1280.2476529642506	3477.6516771731303	716.3416395114181	1269.7975133413438	3608.7796096528614	720.7416331225669	-117.70203369925983	3538.776985412404	636.3811893285155	-368.09174055654626	3485.959760139175	608.4880045363948	-234.24872712926413	3412.10914500167	549.2180125495252	-30.10670163453568	3696.6133762034965	542.4694173390448	206.08103830238406	3743.4818709499027	475.68232635975835	443.3399057637495	3661.4781768676726	404.16556685985705	578.1680967326934	3601.1560562428695	413.3582583470545	610.3135337436119	3651.8186265135228	409.67238546589783	591.7373891340095	3691.9443349832422	407.7821853471226	-14.192055808858262	3533.958775141196	816.9470021537692	246.27814685952404	3453.9356831482637	840.7348495771449	485.5450411882623	3429.943954298573	828.9256318633172	594.1493073291359	3417.3227942813855	797.773984815526	609.765304026491	3428.0866362079264	817.203831108286	600.1935762314907	3388.4521173317107	828.2183336057606
94	1.5666666666666667	466.5206960310922	3618.0060787768793	532.6814499255878	876.8599396771384	3692.3279373393175	563.130834877845	1248.6702782418588	3722.108545760449	628.9373581044882	1319.39531312626	3606.699373358805	599.9989761656358	1296.1831315415227	3615.2965537082814	541.3135302117748	1265.3316485812056	3679.384114661467	629.587208862759	464.7182712716179	3512.919525297514	736.6609583363925	882.8701900780793	3557.1884996177596	742.9567079609258	1234.501066188146	3589.405091601915	723.8718618364945	1332.0177883349672	3562.84382177275	685.7077837183085	1280.330165754135	3477.6958788747797	716.4198151822643	1276.4636730122256	3611.9727413812357	721.1744849665789	-117.75884075038834	3538.578228435431	636.2857283121476	-372.63999704495575	3489.4394423592926	610.3740217373236	-230.5711799316602	3413.5598657919477	549.8044292701613	-25.994338999534097	3694.455187794889	536.3879504833719	206.10525766379678	3743.492965363686	475.6923231316736	443.2010631945367	3661.8382566325536	404.1529829410348	572.326764018409	3598.490430641375	412.0102392326935	604.4114887909599	3648.9484833565452	408.15593149622265	591.4428719222192	3692.8305929598137	407.8607149566942	-15.065602153747339	3518.806734262422	802.6063327464979	246.3252876154274	3453.851094759803	840.600924607188	485.5397749932815	3430.0243281969756	828.7495764434589	597.6020532599579	3437.2692405866987	804.0556160716295	604.3682327659974	3424.9471215853187	815.8441705927767	600.0791147213998	3388.291979948374	828.2132787947317
95	1.5833333333333333	472.4467775161031	3652.6753810933265	550.5359427221927	870.9053731562634	3675.7274081178034	550.083350616432	1242.7225252175588	3718.9287953378575	628.3682722615163	1325.1366815813271	3608.6906322372156	601.7947076485179	1310.7187175903514	3650.005455689827	560.5211015068705	1263.069439764372	3686.9630151354	628.1885239586155	469.31909940058443	3514.6961233135385	737.7786890178137	882.6329925386947	3557.206307572538	742.8943831328121	1234.3731203819762	3589.5455086923675	724.0052196935223	1325.7833330690364	3559.304111115803	684.9725787358453	1285.678621293605	3479.3881173368973	718.0905158851419	1273.9111725328355	3617.27205586619	724.227402219381	-117.6755329798234	3538.5399562891093	636.2101502725537	-368.0861758744022	3485.815053091079	608.2388548064046	-234.26205194194796	3412.215372218554	549.0970415087936	-25.585131268420355	3714.4180461161723	545.420761332082	206.02633816986372	3743.5900996885066	475.6357923635635	443.192599365746	3661.921335825223	404.1009286509846	572.2593339834259	3599.22406996795	412.3583416893927	608.1641634961558	3668.535644633428	412.38609836504384	591.5043186681507	3692.6675259888966	407.7388734669564	-15.044621613616721	3521.0699047388466	798.6262663236568	241.62305401163908	3452.29946168694	839.4995792916221	490.7187280841507	3433.8374825794904	830.1637739312811	596.8275164813588	3438.1557189547443	799.1256246343511	609.5515744030896	3429.4643698632935	817.3709476888384	595.8547786363224	3386.6873247555386	826.8244456657685
96	1.6	473.7670450435548	3661.9237223616906	554.4014287857897	867.4520626926166	3682.014306216564	553.1171790070538	1242.5254976773717	3719.1078871473087	628.3152005812792	1327.1999186786516	3627.98839010966	605.5552041663927	1303.8874179226934	3635.9868481011436	546.7926562183613	1262.8910312372207	3687.1997847873527	628.2640799742879	469.2814654800945	3514.7529845240174	737.7962130630798	879.5578907182016	3564.603057695694	741.3633692223685	1227.915696303728	3585.514396280072	723.0226665499596	1325.7804307606707	3559.2283668962946	684.8299584358343	1280.2806383853112	3477.7403473281443	716.3893803060186	1267.4322864154158	3613.346722149317	723.3403948257078	-117.64913149096796	3538.471679007581	636.165323509073	-367.99985708548326	3486.648201891333	603.5987785660508	-234.34816959786662	3412.297247452198	548.9478784389079	-25.96428977183009	3694.242767224369	536.2590313214632	206.05120310111758	3743.7299776907066	475.6673955416197	443.1960188538233	3661.946870420911	404.0972946266055	577.0704796079252	3603.3460389313996	405.0260923226162	608.3277367336657	3669.0986881320982	412.37117364483004	591.6210293837718	3692.486969830667	407.7789919843186	-15.144352232698017	3521.1141037114035	798.6349755779979	237.61628051988097	3456.1701467682897	841.8272284804984	490.5873440773349	3433.8699157938777	830.0575612248471	595.8483209060005	3438.027889675599	793.6612648047627	609.3191963860683	3430.212043903861	817.4472299108496	595.796504320225	3386.6368101011626	826.6025081259056
97	1.6166666666666667	469.0643239662692	3660.5104448665866	553.5917282721704	866.2354240411773	3674.19659316866	548.6777616263172	1248.748050502127	3722.34860825239	629.0388594572842	1332.9063460190728	3629.77926747768	607.3336652944862	1309.8073263941224	3633.999953534683	556.1553434198455	1265.2221415797546	3681.8676916705426	625.4832876840153	469.37548967030074	3514.900754605854	737.8785203177663	882.8000677473701	3559.974071391592	738.5417113594107	1234.4295854877028	3589.4223730228464	723.75923393297	1325.6953432481089	3559.225051932018	684.9028617683462	1280.212741950031	3477.8162115836767	716.3628874220402	1276.0297927571826	3612.3035722245886	721.4002207962142	-117.74309037821487	3538.3090326715815	635.996778227069	-368.075203537697	3486.67374107558	603.5556595086757	-234.30839590821253	3412.0524345971053	548.8095495020171	-26.02252202852082	3692.05672816185	540.2496792674086	205.97362524794502	3743.9415976232895	475.80018777419343	439.4753439146054	3666.351104482328	406.0774187845219	577.3063106260571	3603.908917979323	405.1433582396111	609.596672361073	3655.780698647425	402.0592273203958	587.3492952111668	3676.1830027819433	395.6567745520598	-15.305750309280182	3520.8598713108813	798.3096416922424	237.56012791023423	3456.148058559966	841.8088023649924	490.6558366772695	3433.7094690188974	830.0017803473894	592.1281321660409	3436.927997509395	792.4465932784	609.3443913328359	3430.3627647992753	817.6534590119085	595.8241698251381	3386.3203133370703	826.3398341508276
98	1.6333333333333333	463.4674443560679	3656.261337547084	552.1040319202544	856.4139856276483	3675.8504722039283	550.5107720230163	1248.8694407890362	3722.5487128252016	629.1332629038037	1333.0911195059416	3630.301174802891	607.5130757078767	1317.5829455586377	3654.7133936844834	561.7486492237634	1270.8941523332987	3683.253797951507	626.8877118460887	465.6596149925986	3519.2815823157557	740.3041828695956	882.3577028635254	3559.682767207037	738.3202134805516	1227.955324113872	3585.6522176971816	723.001220133967	1325.7339887372905	3559.427594673383	684.8000633950073	1280.3029475835792	3477.9268265639257	716.3596912611737	1269.7940976021364	3608.606933381402	720.674051807166	-117.71851529818031	3538.463433464353	636.0026297007042	-368.07131380685183	3486.8243244300957	603.6778916443353	-234.36565434350499	3412.0470731668097	548.6966098583413	-30.197935419760057	3696.367926547789	542.2729860812951	211.14237699055303	3748.3687321891302	477.2843512528213	443.1419201050086	3661.647804415019	403.9990705738286	580.9585824209482	3622.501119468769	408.9749563111642	609.7677783899177	3656.021872413663	402.065725461225	587.382553862713	3676.4992632479903	395.65261230891696	-20.12624876834155	3517.061137138518	796.3967511076992	232.83441090204528	3454.6490258028743	840.7162573952215	490.61984544858996	3433.721238633629	829.9003053475507	592.147152966715	3436.4743605266735	791.9387003256729	609.3291684699221	3430.1271864419414	817.2936764920078	595.9666964441747	3386.002646736466	826.0240501347014
